<?xml version="1.0" encoding="utf-8"?>
<!-- Generator: Adobe Illustrator 26.5.0, SVG Export Plug-In . SVG Version: 6.00 Build 0)  -->
<svg version="1.1" id="Livello_1" xmlns="http://www.w3.org/2000/svg" xmlns:xlink="http://www.w3.org/1999/xlink" x="0px" y="0px"
	 viewBox="0 0 22.5 22.1" style="enable-background:new 0 0 22.5 22.1;" xml:space="preserve">
<style type="text/css">
	.st0{fill:url(#SVGID_1_);}
	.st1{fill:url(#SVGID_00000116932749609570621940000003559053185052657542_);}
	.st2{fill:url(#SVGID_00000105418048813030888230000015722066171061624992_);}
</style>
<linearGradient id="SVGID_1_" gradientUnits="userSpaceOnUse" x1="7.1798" y1="10.2253" x2="15.5156" y2="10.2253">
	<stop  offset="0" style="stop-color:#00CC99"/>
	<stop  offset="0.1938" style="stop-color:#00C48A"/>
	<stop  offset="0.7179" style="stop-color:#00B167"/>
	<stop  offset="1" style="stop-color:#00AA5A"/>
</linearGradient>
<path class="st0" d="M7.5,14.3c-0.1,0-0.1,0-0.2,0c-0.1-0.1-0.2-0.3-0.1-0.4l0,0c0.8-1.2,1.9-2.1,3.1-2.4l0.6-0.1l-0.6-0.2
	c-1-0.4-1.6-1.4-1.6-2.4c0-1.4,1.2-2.6,2.6-2.6c1.4,0,2.6,1.2,2.6,2.6c0,1.1-0.6,2-1.6,2.4l-0.6,0.2l0.6,0.1
	c1.2,0.3,2.3,1.1,3.1,2.4c0.1,0.1,0,0.3-0.1,0.4c0,0-0.1,0-0.2,0c-0.1,0-0.2-0.1-0.3-0.1c-0.9-1.4-2.2-2.2-3.6-2.2
	c-1.4,0-2.7,0.8-3.6,2.2C7.7,14.3,7.6,14.3,7.5,14.3z M11.3,6.7c-1.1,0-2,0.9-2,2s0.9,2,2,2s2-0.9,2-2S12.4,6.7,11.3,6.7z"/>
<linearGradient id="SVGID_00000015314920944757671220000012385268089709725349_" gradientUnits="userSpaceOnUse" x1="1.9066" y1="7.8371" x2="18.4646" y2="7.8371">
	<stop  offset="0" style="stop-color:#00CC99"/>
	<stop  offset="0.1938" style="stop-color:#00C48A"/>
	<stop  offset="0.7179" style="stop-color:#00B167"/>
	<stop  offset="1" style="stop-color:#00AA5A"/>
</linearGradient>
<path style="fill:url(#SVGID_00000015314920944757671220000012385268089709725349_);" d="M3.6,12.8c-0.2,0-0.4-0.1-0.5-0.3l-1.1-2
	c-0.1-0.2-0.1-0.4,0-0.6c0.1-0.2,0.3-0.3,0.5-0.3h0.9l0-0.2C3.8,7.6,4.7,6,6.1,4.8c1.5-1.3,3.3-2,5.3-2c3,0,5.7,1.6,7.1,4.2
	c0.1,0.2,0,0.3-0.1,0.4c0,0-0.1,0-0.1,0c-0.1,0-0.2-0.1-0.3-0.2c-1.3-2.4-3.8-3.9-6.5-3.9c-1.8,0-3.5,0.6-4.9,1.8
	C5.3,6.3,4.4,7.8,4.1,9.3L4,9.6h0.7c0.2,0,0.4,0.1,0.5,0.3c0.1,0.2,0.1,0.4,0,0.6l-1.1,2C4.1,12.7,3.8,12.8,3.6,12.8L3.6,12.8z
	 M3.6,12.2l1.1-2H2.5L3.6,12.2z"/>
<linearGradient id="SVGID_00000103974264997548275990000015749069673219052718_" gradientUnits="userSpaceOnUse" x1="4.0345" y1="14.0536" x2="20.5934" y2="14.0536">
	<stop  offset="0" style="stop-color:#00CC99"/>
	<stop  offset="0.1938" style="stop-color:#00C48A"/>
	<stop  offset="0.7179" style="stop-color:#00B167"/>
	<stop  offset="1" style="stop-color:#00AA5A"/>
</linearGradient>
<path style="fill:url(#SVGID_00000103974264997548275990000015749069673219052718_);" d="M11.1,19.1c-3,0-5.7-1.6-7.1-4.2
	c-0.1-0.2,0-0.3,0.1-0.4c0,0,0.1,0,0.1,0c0.1,0,0.2,0.1,0.3,0.2c1.3,2.4,3.8,3.9,6.5,3.9c1.8,0,3.5-0.6,4.9-1.8
	c1.2-1.1,2.1-2.5,2.4-4.1l0.1-0.2h-0.7c-0.2,0-0.4-0.1-0.5-0.3c-0.1-0.2-0.1-0.4,0-0.6l1.1-2C18.4,9.2,18.7,9,18.9,9
	c0.2,0,0.4,0.1,0.5,0.3l0.1,0.1l0,0l1,1.9c0.1,0.2,0.1,0.4,0,0.6c-0.1,0.2-0.3,0.3-0.5,0.3h-0.9l0,0.2c-0.3,1.8-1.3,3.4-2.6,4.6
	C15,18.4,13.1,19.1,11.1,19.1z M17.7,11.7H20l-1.1-2L17.7,11.7z"/>
</svg>
