<?xml version="1.0" encoding="utf-8"?>
<!-- Generator: Adobe Illustrator 26.5.0, SVG Export Plug-In . SVG Version: 6.00 Build 0)  -->
<svg version="1.1" id="Livello_1" xmlns="http://www.w3.org/2000/svg" xmlns:xlink="http://www.w3.org/1999/xlink" x="0px" y="0px"
	 viewBox="0 0 22.5 22.1" style="enable-background:new 0 0 22.5 22.1;" xml:space="preserve">
<style type="text/css">
	.st0{fill:url(#SVGID_1_);}
	.st1{fill:url(#SVGID_00000011751378729678582890000014989156441806910886_);}
	.st2{fill:url(#SVGID_00000061467491802790416780000018063799374136576433_);}
	.st3{fill:url(#SVGID_00000103261365267573756150000009649362153832710547_);}
	.st4{fill:url(#SVGID_00000075852723676687218210000009484572197028984505_);}
	.st5{fill:url(#SVGID_00000153670425207902264020000011399363629913143486_);}
</style>
<g>
	<linearGradient id="SVGID_1_" gradientUnits="userSpaceOnUse" x1="6.4616" y1="10.3225" x2="12.3806" y2="10.3225">
		<stop  offset="0" style="stop-color:#00CC99"/>
		<stop  offset="0.1938" style="stop-color:#00C48A"/>
		<stop  offset="0.7179" style="stop-color:#00B167"/>
		<stop  offset="1" style="stop-color:#00AA5A"/>
	</linearGradient>
	<path class="st0" d="M11.7,8.4l-3,3L7.1,9.9C7,9.7,6.7,9.7,6.6,9.9c-0.2,0.2-0.2,0.4,0,0.6l1.8,1.8c0.1,0.1,0.2,0.1,0.3,0.1
		c0.1,0,0.2,0,0.3-0.1L12.3,9c0.2-0.2,0.2-0.4,0-0.6C12.1,8.2,11.9,8.2,11.7,8.4z"/>
	
		<linearGradient id="SVGID_00000084488784204915489850000008110075089659311501_" gradientUnits="userSpaceOnUse" x1="5.792" y1="16.7572" x2="7.1147" y2="16.7572">
		<stop  offset="0" style="stop-color:#00CC99"/>
		<stop  offset="0.1938" style="stop-color:#00C48A"/>
		<stop  offset="0.7179" style="stop-color:#00B167"/>
		<stop  offset="1" style="stop-color:#00AA5A"/>
	</linearGradient>
	<path style="fill:url(#SVGID_00000084488784204915489850000008110075089659311501_);" d="M6.5,16.1c-0.4,0-0.7,0.3-0.7,0.7
		c0,0.4,0.3,0.7,0.7,0.7c0.4,0,0.7-0.3,0.7-0.7C7.1,16.4,6.8,16.1,6.5,16.1z"/>
	
		<linearGradient id="SVGID_00000144320307209343911060000009399733565911109819_" gradientUnits="userSpaceOnUse" x1="18.0414" y1="16.7572" x2="19.3641" y2="16.7572">
		<stop  offset="0" style="stop-color:#00CC99"/>
		<stop  offset="0.1938" style="stop-color:#00C48A"/>
		<stop  offset="0.7179" style="stop-color:#00B167"/>
		<stop  offset="1" style="stop-color:#00AA5A"/>
	</linearGradient>
	<path style="fill:url(#SVGID_00000144320307209343911060000009399733565911109819_);" d="M18.7,16.1c-0.4,0-0.7,0.3-0.7,0.7
		c0,0.4,0.3,0.7,0.7,0.7c0.4,0,0.7-0.3,0.7-0.7C19.4,16.4,19.1,16.1,18.7,16.1z"/>
	
		<linearGradient id="SVGID_00000170960743718230890940000005351620384450673794_" gradientUnits="userSpaceOnUse" x1="0.7985" y1="13.392" x2="6.04" y2="13.392">
		<stop  offset="0" style="stop-color:#00CC99"/>
		<stop  offset="0.1938" style="stop-color:#00C48A"/>
		<stop  offset="0.7179" style="stop-color:#00B167"/>
		<stop  offset="1" style="stop-color:#00AA5A"/>
	</linearGradient>
	<path style="fill:url(#SVGID_00000170960743718230890940000005351620384450673794_);" d="M1.2,13.8h4.4c0.2,0,0.4-0.2,0.4-0.4
		C6,13.2,5.9,13,5.6,13H1.2c-0.2,0-0.4,0.2-0.4,0.4C0.8,13.6,1,13.8,1.2,13.8z"/>
	
		<linearGradient id="SVGID_00000132800887570960136780000003363168492255498154_" gradientUnits="userSpaceOnUse" x1="9.1085" y1="14.9311" x2="15.1312" y2="14.9311">
		<stop  offset="0" style="stop-color:#00CC99"/>
		<stop  offset="0.1938" style="stop-color:#00C48A"/>
		<stop  offset="0.7179" style="stop-color:#00B167"/>
		<stop  offset="1" style="stop-color:#00AA5A"/>
	</linearGradient>
	<path style="fill:url(#SVGID_00000132800887570960136780000003363168492255498154_);" d="M9.1,14.9c0,0.2,0.2,0.4,0.4,0.4h5.2
		c0.2,0,0.4-0.2,0.4-0.4c0-0.2-0.2-0.4-0.4-0.4H9.5C9.3,14.5,9.1,14.7,9.1,14.9z"/>
	
		<linearGradient id="SVGID_00000095337546686834650440000012799063187306393243_" gradientUnits="userSpaceOnUse" x1="0.1666" y1="11.9915" x2="22.3334" y2="11.9915">
		<stop  offset="0" style="stop-color:#00CC99"/>
		<stop  offset="0.1938" style="stop-color:#00C48A"/>
		<stop  offset="0.7179" style="stop-color:#00B167"/>
		<stop  offset="1" style="stop-color:#00AA5A"/>
	</linearGradient>
	<path style="fill:url(#SVGID_00000095337546686834650440000012799063187306393243_);" d="M21.1,10.9l-0.6-2.5
		c0.1-0.1,0.2-0.3,0.2-0.5V7.4c0-0.6-0.5-1.2-1.2-1.2h-3.2V5.7C16.3,5.3,16,5,15.7,5H2.3C1.9,5,1.6,5.3,1.6,5.7v6.5
		c0,0.2,0.2,0.4,0.4,0.4s0.4-0.2,0.4-0.4V5.8h13.1v6c0,0.2,0.2,0.4,0.4,0.4s0.4-0.2,0.4-0.4v-0.1h4.5c0.4,0,0.7,0.3,0.7,0.7h-0.7
		c-0.3,0-0.5,0.2-0.5,0.5v1c0,0.4,0.3,0.7,0.7,0.7h0.5l0,1.4h-0.7c-0.3-0.9-1.1-1.5-2.1-1.5s-1.8,0.6-2.1,1.5h-0.3v-2.6
		c0-0.2-0.2-0.4-0.4-0.4s-0.4,0.2-0.4,0.4V16h-0.4H8.5c-0.3-0.9-1.1-1.5-2.1-1.5S4.7,15.2,4.4,16H2.4v-0.5h1.5
		c0.2,0,0.4-0.2,0.4-0.4c0-0.2-0.2-0.4-0.4-0.4H0.6c-0.2,0-0.4,0.2-0.4,0.4c0,0.2,0.2,0.4,0.4,0.4h1.1v0.7c0,0.4,0.3,0.7,0.7,0.7h2
		c0,1.2,1,2.2,2.2,2.2s2.2-1,2.2-2.2h6.4h0.6h0.8c0,1.2,1,2.2,2.2,2.2c1.2,0,2.2-1,2.2-2.2h0.6c0.4,0,0.8-0.4,0.8-0.8v-3.7
		C22.3,11.6,21.8,11,21.1,10.9z M19.5,7.1c0.2,0,0.4,0.2,0.4,0.4v0.4h-3.5V7.1H19.5z M16.3,8.6h3.3l0.6,2.3h-3.9V8.6z M6.5,18.2
		c-0.8,0-1.4-0.6-1.4-1.4c0-0.8,0.6-1.4,1.4-1.4s1.4,0.6,1.4,1.4C7.9,17.5,7.2,18.2,6.5,18.2z M18.7,18.2c-0.8,0-1.4-0.6-1.4-1.4
		c0-0.8,0.6-1.4,1.4-1.4s1.4,0.6,1.4,1.4C20.1,17.5,19.5,18.2,18.7,18.2z M21.1,13.8v-0.7h0.5l0,0.7H21.1z"/>
</g>
</svg>
