<?xml version="1.0" encoding="utf-8"?>
<!-- Generator: Adobe Illustrator 26.5.0, SVG Export Plug-In . SVG Version: 6.00 Build 0)  -->
<svg version="1.1" id="Livello_1" xmlns="http://www.w3.org/2000/svg" xmlns:xlink="http://www.w3.org/1999/xlink" x="0px" y="0px"
	 viewBox="0 0 22.5 22.1" style="enable-background:new 0 0 22.5 22.1;" xml:space="preserve">
<style type="text/css">
	.st0{fill:url(#SVGID_1_);}
	.st1{fill:url(#SVGID_00000035494339709077096360000002905452813493813645_);}
	.st2{fill:url(#SVGID_00000072277128369882767390000016852356202208127899_);}
	.st3{fill:url(#SVGID_00000134943965053003743040000006782477872472921487_);}
	.st4{fill:url(#SVGID_00000082366325814839531410000007223729419304838068_);}
	.st5{fill:url(#SVGID_00000083075552936424158360000005422306726884498079_);}
	.st6{fill:url(#SVGID_00000022526101444421373520000006045518141110343328_);}
</style>
<g>
	<linearGradient id="SVGID_1_" gradientUnits="userSpaceOnUse" x1="2.9697" y1="11.05" x2="19.5303" y2="11.05">
		<stop  offset="0" style="stop-color:#00CC99"/>
		<stop  offset="0.1938" style="stop-color:#00C48A"/>
		<stop  offset="0.7179" style="stop-color:#00B167"/>
		<stop  offset="1" style="stop-color:#00AA5A"/>
	</linearGradient>
	<path class="st0" d="M15,11.7v-9C15.1,2,13,2.4,12.7,2.3c-0.1-0.2-0.2-0.4-0.4-0.5c-0.2-0.1-0.4-0.2-0.6-0.2c0-0.3-0.1-0.5-0.3-0.7
		c-0.2-0.2-0.4-0.3-0.7-0.3H7.2C7,0.7,6.7,0.8,6.5,1C6.4,1.2,6.3,1.4,6.3,1.7c-0.2,0-0.4,0.1-0.6,0.2C5.5,2,5.4,2.1,5.3,2.3
		c-0.2,0-2,0-2,0c-0.1,0-0.2,0-0.2,0.1C3,2.5,3,2.6,3,2.7v15.7c0,0.1,0,0.2,0.1,0.3c0.1,0.1,0.2,0.1,0.3,0.1c1.5,0,6.6,0,7,0
		c0.8,1.7,2.8,2.6,4,2.6c2.9,0,5.2-1.9,5.2-4.9l0,0c0-1.2-0.5-2.4-1.3-3.3C17.4,12.3,16.2,11.8,15,11.7L15,11.7z M12.7,3h1.6v8.7h0
		c-0.3,0-0.5,0.1-0.8,0.1V4.2c0-0.4-0.5-0.3-0.8-0.3L12.7,3z M6.9,1.6c0-0.1,0-0.1,0.1-0.2c0.1-0.1,0.1-0.1,0.2-0.1h3.5
		c0.1,0,0.1,0,0.2,0.1C11,1.5,11,1.6,11,1.7L6.9,1.6L6.9,1.6z M6.3,2.3c2.9,0,5.1,0,5.1,0c0.3,0,0.7,0,0.7,0.3v1.5
		c0,0.1,0,0.2-0.1,0.2c-0.1,0.1-0.2,0.1-0.2,0.1H6.3h0c-0.1,0-0.2,0-0.2-0.1C6,4.3,5.9,4.2,5.9,4.2V2.7c0-0.1,0-0.2,0.1-0.2
		C6.1,2.4,6.2,2.3,6.3,2.3L6.3,2.3z M3.6,18.1V3h1.6v0.8c-0.1,0-0.5,0-0.5,0C4.6,3.8,4.5,4,4.5,4.2V17c0,0.2,0.2,0.3,0.3,0.3h5.1
		c0,0.3,0.1,0.5,0.2,0.8L3.6,18.1z M9.8,16.6H5.1V4.5h0.2C5.4,4.7,5.5,4.9,5.7,5c0.2,0.1,0.4,0.2,0.6,0.2h5.4c0.2,0,0.4-0.1,0.6-0.2
		c0.2-0.1,0.3-0.3,0.4-0.5h0.2V12c-0.9,0.4-1.7,1-2.2,1.8C10.1,14.7,9.8,15.6,9.8,16.6L9.8,16.6z M18.8,16.9c-0.1,1.1-0.5,2-1.3,2.8
		s-1.8,1.1-2.9,1.1c-1.1,0-2.2-0.4-3-1.2c-0.8-0.8-1.2-1.8-1.2-3c0-2.1,1.5-4.2,4.2-4.2C17.4,12.4,19,14.6,18.8,16.9L18.8,16.9z"/>
	
		<linearGradient id="SVGID_00000140703922208729689560000008356845418577161882_" gradientUnits="userSpaceOnUse" x1="11.2831" y1="16.5507" x2="18.0622" y2="16.5507">
		<stop  offset="0" style="stop-color:#00CC99"/>
		<stop  offset="0.1938" style="stop-color:#00C48A"/>
		<stop  offset="0.7179" style="stop-color:#00B167"/>
		<stop  offset="1" style="stop-color:#00AA5A"/>
	</linearGradient>
	<path style="fill:url(#SVGID_00000140703922208729689560000008356845418577161882_);" d="M16.6,14.4l-2.6,2.6l-1.3-1.3
		c-0.9-0.8-1.9,0.4-1.2,1.2c0.7,0.6,1.4,1.4,1.9,1.9c0.2,0.2,0.4,0.2,0.6,0.2c0.2,0,0.4-0.1,0.6-0.2c0.8-0.8,2.4-2.4,3.1-3.1
		C18.6,14.8,17.3,13.6,16.6,14.4L16.6,14.4z M17.3,15.1L14.4,18c-0.1,0.1-0.3,0.4-0.5,0.3L12,16.3c-0.1-0.1,0.1-0.4,0.2-0.2
		c0.7,0.7,1.3,1.3,1.6,1.6c0.1,0.1,0.1,0.1,0.2,0.1c0.1,0,0.2,0,0.2-0.1c0.4-0.4,1.4-1.4,2.8-2.8C17.2,14.7,17.5,14.9,17.3,15.1
		L17.3,15.1z"/>
	
		<linearGradient id="SVGID_00000110433242189484400960000017953655932427446954_" gradientUnits="userSpaceOnUse" x1="6.1665" y1="7.3013" x2="11.8117" y2="7.3013">
		<stop  offset="0" style="stop-color:#00CC99"/>
		<stop  offset="0.1938" style="stop-color:#00C48A"/>
		<stop  offset="0.7179" style="stop-color:#00B167"/>
		<stop  offset="1" style="stop-color:#00AA5A"/>
	</linearGradient>
	<path style="fill:url(#SVGID_00000110433242189484400960000017953655932427446954_);" d="M11.5,7h-5c-0.4,0-0.4,0.7,0,0.7h5
		C11.9,7.6,11.9,7,11.5,7z"/>
	
		<linearGradient id="SVGID_00000175281462395095064630000010698792858384263315_" gradientUnits="userSpaceOnUse" x1="6.1665" y1="9.1667" x2="11.8117" y2="9.1667">
		<stop  offset="0" style="stop-color:#00CC99"/>
		<stop  offset="0.1938" style="stop-color:#00C48A"/>
		<stop  offset="0.7179" style="stop-color:#00B167"/>
		<stop  offset="1" style="stop-color:#00AA5A"/>
	</linearGradient>
	<path style="fill:url(#SVGID_00000175281462395095064630000010698792858384263315_);" d="M11.5,8.8h-5c-0.4,0-0.4,0.7,0,0.7h5
		C11.9,9.5,11.9,8.8,11.5,8.8z"/>
	
		<linearGradient id="SVGID_00000015315591960410782710000001736162671413084060_" gradientUnits="userSpaceOnUse" x1="6.1573" y1="11.0321" x2="11.8209" y2="11.0321">
		<stop  offset="0" style="stop-color:#00CC99"/>
		<stop  offset="0.1938" style="stop-color:#00C48A"/>
		<stop  offset="0.7179" style="stop-color:#00B167"/>
		<stop  offset="1" style="stop-color:#00AA5A"/>
	</linearGradient>
	<path style="fill:url(#SVGID_00000015315591960410782710000001736162671413084060_);" d="M11.5,10.7h-5c-0.2,0-0.3,0.2-0.3,0.3
		c0,0.2,0.2,0.3,0.3,0.3h5c0.2,0,0.3-0.2,0.3-0.3C11.8,10.8,11.7,10.7,11.5,10.7z"/>
	
		<linearGradient id="SVGID_00000164494861815256876060000005505675400150461373_" gradientUnits="userSpaceOnUse" x1="6.1668" y1="12.8974" x2="10.0004" y2="12.8974">
		<stop  offset="0" style="stop-color:#00CC99"/>
		<stop  offset="0.1938" style="stop-color:#00C48A"/>
		<stop  offset="0.7179" style="stop-color:#00B167"/>
		<stop  offset="1" style="stop-color:#00AA5A"/>
	</linearGradient>
	<path style="fill:url(#SVGID_00000164494861815256876060000005505675400150461373_);" d="M9.7,12.6H6.5c-0.4,0-0.4,0.7,0,0.7h3.2
		C10.1,13.2,10.1,12.6,9.7,12.6z"/>
	
		<linearGradient id="SVGID_00000141446852167358381460000016372792293874622624_" gradientUnits="userSpaceOnUse" x1="6.1667" y1="14.7628" x2="8.9999" y2="14.7628">
		<stop  offset="0" style="stop-color:#00CC99"/>
		<stop  offset="0.1938" style="stop-color:#00C48A"/>
		<stop  offset="0.7179" style="stop-color:#00B167"/>
		<stop  offset="1" style="stop-color:#00AA5A"/>
	</linearGradient>
	<path style="fill:url(#SVGID_00000141446852167358381460000016372792293874622624_);" d="M8.7,14.4H6.5c-0.4,0-0.4,0.7,0,0.7h2.2
		C9.1,15.1,9.1,14.4,8.7,14.4z"/>
</g>
</svg>
