<?xml version="1.0" encoding="utf-8"?>
<!-- Generator: Adobe Illustrator 26.5.0, SVG Export Plug-In . SVG Version: 6.00 Build 0)  -->
<svg version="1.1" id="Livello_1" xmlns="http://www.w3.org/2000/svg" xmlns:xlink="http://www.w3.org/1999/xlink" x="0px" y="0px"
	 viewBox="0 0 22.5 22.1" style="enable-background:new 0 0 22.5 22.1;" xml:space="preserve">
<style type="text/css">
	.st0{fill:url(#SVGID_1_);}
	.st1{fill:url(#SVGID_00000119082275269030156310000010848110939961774738_);}
	.st2{fill:url(#SVGID_00000145060831580780995540000014472359898190491538_);}
</style>
<g>
	<linearGradient id="SVGID_1_" gradientUnits="userSpaceOnUse" x1="6.2332" y1="12.1221" x2="16.266" y2="12.1221">
		<stop  offset="0" style="stop-color:#00CC99"/>
		<stop  offset="0.1938" style="stop-color:#00C48A"/>
		<stop  offset="0.7179" style="stop-color:#00B167"/>
		<stop  offset="1" style="stop-color:#00AA5A"/>
	</linearGradient>
	<path class="st0" d="M16.2,11.3c0.1-0.1,0.1-0.2,0.1-0.3c0-0.1-0.1-0.2-0.2-0.2l-3.1-0.5l-1.4-2.8c-0.1-0.2-0.4-0.2-0.5,0l-1.4,2.8
		l-3.1,0.5c-0.1,0-0.2,0.1-0.2,0.2c0,0.1,0,0.2,0.1,0.3l2.3,2.2L8,16.6c0,0.1,0,0.2,0.1,0.3c0,0,0.1,0.1,0.2,0.1c0,0,0.1,0,0.1,0
		l2.8-1.5l2.8,1.5c0.1,0.1,0.2,0,0.3,0c0.1-0.1,0.1-0.2,0.1-0.3l-0.5-3.1L16.2,11.3z M11.4,14.8c0,0-0.1,0-0.1,0c0,0-0.1,0-0.1,0
		l-2.4,1.3l0.5-2.7c0-0.1,0-0.2-0.1-0.2l-2-1.9l2.7-0.4c0.1,0,0.2-0.1,0.2-0.2l1.2-2.5l1.2,2.5c0,0.1,0.1,0.1,0.2,0.2l2.7,0.4
		l-2,1.9c-0.1,0.1-0.1,0.2-0.1,0.2l0.5,2.7L11.4,14.8z"/>
	
		<linearGradient id="SVGID_00000096057618163109139230000018160657207545751727_" gradientUnits="userSpaceOnUse" x1="0.3148" y1="10.077" x2="9.5991" y2="10.077">
		<stop  offset="0" style="stop-color:#00CC99"/>
		<stop  offset="0.1938" style="stop-color:#00C48A"/>
		<stop  offset="0.7179" style="stop-color:#00B167"/>
		<stop  offset="1" style="stop-color:#00AA5A"/>
	</linearGradient>
	<path style="fill:url(#SVGID_00000096057618163109139230000018160657207545751727_);" d="M7.5,13.4c-0.2,0-0.3,0.2-0.2,0.3
		l-2.2-1.2c-0.1,0-0.2,0-0.3,0l-2.2,1.2l0.4-2.4c0-0.1,0-0.2-0.1-0.2L1.2,9.3l2.5-0.4c0.1,0,0.2-0.1,0.2-0.2L5,6.6l1.1,2.2
		c0,0.1,0.1,0.1,0.2,0.2l2.5,0.4L8.6,9.4c-0.1,0.1-0.1,0.3,0,0.4c0.1,0.1,0.3,0.1,0.4,0l0.5-0.5C9.6,9.2,9.6,9.1,9.6,9
		c0-0.1-0.1-0.2-0.2-0.2L6.5,8.4L5.2,5.8c-0.1-0.2-0.4-0.2-0.5,0L3.4,8.4L0.6,8.8C0.4,8.8,0.4,8.9,0.3,9c0,0.1,0,0.2,0.1,0.3l2.1,2
		L2,14.2c0,0.1,0,0.2,0.1,0.3c0,0,0.1,0.1,0.2,0.1c0,0,0.1,0,0.1,0L5,13.1l2.6,1.3c0.1,0.1,0.2,0,0.3,0c0.1-0.1,0.1-0.2,0.1-0.3
		l-0.1-0.6C7.8,13.5,7.7,13.4,7.5,13.4L7.5,13.4z"/>
	
		<linearGradient id="SVGID_00000176019680631912308110000004998193575929243010_" gradientUnits="userSpaceOnUse" x1="12.901" y1="10.0706" x2="22.1852" y2="10.0706">
		<stop  offset="0" style="stop-color:#00CC99"/>
		<stop  offset="0.1938" style="stop-color:#00C48A"/>
		<stop  offset="0.7179" style="stop-color:#00B167"/>
		<stop  offset="1" style="stop-color:#00AA5A"/>
	</linearGradient>
	<path style="fill:url(#SVGID_00000176019680631912308110000004998193575929243010_);" d="M22.2,9c0-0.1-0.1-0.2-0.2-0.2l-2.9-0.4
		l-1.3-2.6c0-0.1-0.1-0.2-0.3-0.2c-0.1,0-0.2,0.1-0.3,0.2L16,8.4l-2.9,0.4c-0.1,0-0.2,0.1-0.2,0.2c0,0.1,0,0.2,0.1,0.3l0.5,0.5
		c0.1,0.1,0.3,0.1,0.4,0c0.1-0.1,0.1-0.3,0-0.4l-0.1-0.1l2.5-0.4c0.1,0,0.2-0.1,0.2-0.2l1.1-2.2l1.1,2.2c0,0.1,0.1,0.1,0.2,0.2
		l2.5,0.4L19.5,11c-0.1,0.1-0.1,0.2-0.1,0.2l0.4,2.4l-2.2-1.2c-0.1,0-0.2,0-0.3,0l-2.2,1.2c0-0.2-0.1-0.3-0.2-0.3
		c-0.1,0-0.3,0.1-0.3,0.2l-0.1,0.6c0,0.1,0,0.2,0.1,0.3c0,0,0.1,0.1,0.2,0.1c0,0,0.1,0,0.1,0l2.6-1.3l2.6,1.3c0.1,0.1,0.2,0,0.3,0
		c0.1-0.1,0.1-0.2,0.1-0.3L20,11.3l2.1-2C22.2,9.2,22.2,9.1,22.2,9L22.2,9z"/>
</g>
</svg>
